<svg width="91" height="65" viewBox="0 0 91 65" fill="none" xmlns="http://www.w3.org/2000/svg">
<mask id="path-1-inside-1_57_8326" fill="white">
<path fill-rule="evenodd" clip-rule="evenodd" d="M16.5204 21.0028C18.3378 10.0067 28.5666 1.3387 41.2424 0.84662C54.4178 0.335144 65.6423 8.83515 67.7291 20.3187H69.0168C81.1578 20.3187 91 30.1609 91 42.3018C91 54.4428 81.1578 64.285 69.0169 64.285H21.9832C9.84219 64.285 0 54.4428 0 42.3018C0 32.0467 7.02214 23.4317 16.5204 21.0028Z"/>
</mask>
<path fill-rule="evenodd" clip-rule="evenodd" d="M16.5204 21.0028C18.3378 10.0067 28.5666 1.3387 41.2424 0.84662C54.4178 0.335144 65.6423 8.83515 67.7291 20.3187H69.0168C81.1578 20.3187 91 30.1609 91 42.3018C91 54.4428 81.1578 64.285 69.0169 64.285H21.9832C9.84219 64.285 0 54.4428 0 42.3018C0 32.0467 7.02214 23.4317 16.5204 21.0028Z" fill="white"/>
<path d="M16.5204 21.0028L18.2546 27.7846L22.6815 26.6525L23.4267 22.1443L16.5204 21.0028ZM41.2424 0.84662L40.9709 -6.14811L41.2424 0.84662ZM67.7291 20.3187L60.8419 21.5702L61.8865 27.3187H67.7291V20.3187ZM23.4267 22.1443C24.6382 14.814 31.7502 8.22039 41.514 7.84135L40.9709 -6.14811C25.383 -5.54298 12.0374 5.19942 9.61406 19.8613L23.4267 22.1443ZM41.514 7.84135C51.6844 7.44653 59.4603 13.9675 60.8419 21.5702L74.6163 19.0671C71.8243 3.70277 57.1512 -6.77624 40.9709 -6.14811L41.514 7.84135ZM67.7291 27.3187H69.0168V13.3187H67.7291V27.3187ZM69.0168 27.3187C77.2918 27.3187 84 34.0269 84 42.3018H98C98 26.2949 85.0238 13.3187 69.0168 13.3187V27.3187ZM84 42.3018C84 50.5768 77.2918 57.285 69.0169 57.285V71.285C85.0238 71.285 98 58.3088 98 42.3018H84ZM69.0169 57.285H21.9832V71.285H69.0169V57.285ZM21.9832 57.285C13.7082 57.285 7 50.5768 7 42.3018H-7C-7 58.3088 5.9762 71.285 21.9832 71.285V57.285ZM7 42.3018C7 35.3217 11.7795 29.4404 18.2546 27.7846L14.7861 14.221C2.2648 17.4229 -7 28.7716 -7 42.3018H7Z" fill="#5D6DBE" mask="url(#path-1-inside-1_57_8326)"/>
</svg>
