<svg xmlns="http://www.w3.org/2000/svg" width="152" height="152" fill="none"><path fill="#5D6DBE" d="M104.1 57.3a28.1 28.1 0 1 1-56.2 0 28.1 28.1 0 0 1 56.2 0Z"/><path fill="#5D6DBE" fill-rule="evenodd" d="M1 76a75 75 0 1 1 150 0A75 75 0 0 1 1 76Zm75-65.6A65.6 65.6 0 0 0 24.7 117C31.4 106.2 46 94.7 76 94.7c30 0 44.6 11.5 51.3 22.3A65.6 65.6 0 0 0 76 10.4Z" clip-rule="evenodd"/><path stroke="#5D6DBE" d="M104.1 57.3a28.1 28.1 0 1 1-56.2 0 28.1 28.1 0 0 1 56.2 0Z"/><path stroke="#5D6DBE" d="M1 76a75 75 0 1 1 150 0A75 75 0 0 1 1 76Zm75-65.6A65.6 65.6 0 0 0 24.7 117C31.4 106.2 46 94.7 76 94.7c30 0 44.6 11.5 51.3 22.3A65.6 65.6 0 0 0 76 10.4Z" clip-rule="evenodd"/></svg>